<?xml version="1.0" encoding="UTF-8" standalone="no"?>
<!DOCTYPE svg PUBLIC "-//W3C//DTD SVG 1.1//EN" "http://www.w3.org/Graphics/SVG/1.1/DTD/svg11.dtd">
<svg width="100%" height="100%" viewBox="0 0 888 94" version="1.1" xmlns="http://www.w3.org/2000/svg"
     xml:space="preserve"
     style="fill-rule:evenodd;clip-rule:evenodd;stroke-linejoin:round;stroke-miterlimit:2;">
    <g transform="matrix(1,0,0,1,-5443.12,-382.041)">
        <g transform="matrix(0.762983,0,0,0.569343,3945.84,311.1)">
            <g transform="matrix(1.21097,0,0,1.41985,-335.382,-37.84)">
                <path d="M1939.77,144.766L1939.77,220.785C1939.77,223.385 1942.04,225.785 1944.49,225.785C1947.14,225.785 1950.3,223.585 1950.3,220.785L1950.3,144.766C1950.3,140.829 1951.66,137.054 1954.1,134.27C1956.54,131.486 1959.84,129.922 1963.29,129.922C1973.24,129.922 1985.28,129.922 1985.29,129.922C1985.29,129.922 1985.29,129.922 1985.29,129.922C1987.93,129.922 1990.01,126.385 1990.01,123.785C1990.01,120.985 1987.93,118.785 1985.29,118.785L1904.45,118.785C1902,118.785 1899.73,120.985 1899.73,123.785C1899.73,126.385 1902,129.922 1904.45,129.922C1904.45,129.922 1904.45,129.922 1904.45,129.922C1904.47,129.922 1916.72,129.922 1926.78,129.922C1933.96,129.922 1939.77,136.568 1939.77,144.766Z"
                      style="fill:url(#_Linear1);fill-rule:nonzero;stroke:url(#_Linear2);stroke-width:4.8px;"/>
                <g transform="matrix(1,0,0,1,-4.97428,0)">
                    <path d="M2088.75,223.715C2089.07,224.201 2089.46,224.615 2089.91,224.936C2090.7,225.501 2091.61,225.785 2092.51,225.785C2095.16,225.785 2097,224.305 2097.63,223.046C2098.37,220.717 2097.63,219.277 2096.24,216.747C2096.1,216.495 2095.95,216.247 2095.8,216.005C2094.06,213.238 2082.22,194.386 2075.22,183.261C2074.08,181.434 2073.72,179.111 2074.24,176.945C2074.77,174.778 2076.13,173.001 2077.93,172.113C2088.38,167.224 2093.94,159.572 2093.94,147.836C2093.94,128.436 2080.96,118.785 2056.87,118.785C2056.87,118.785 2056.87,118.785 2056.87,118.785C2056.85,118.785 2031.11,118.785 2031.1,118.785C2031.1,118.785 2031.1,118.785 2031.1,118.785C2026.46,118.785 2024.38,122.122 2024.38,126.059L2024.38,220.785C2024.38,223.385 2026.65,225.785 2029.11,225.785C2031.75,225.785 2033.83,223.585 2033.83,220.785L2033.83,191.733C2033.83,187.796 2035.19,184.02 2037.63,181.236C2040.07,178.452 2043.37,176.888 2046.82,176.888C2048.48,176.888 2050.13,176.888 2051.63,176.888C2055.73,176.888 2059.58,179.097 2062.04,182.848C2069.85,194.796 2086.84,220.791 2088.75,223.715ZM2033.83,143.629C2033.83,139.692 2035.19,135.916 2037.63,133.133C2040.07,130.349 2043.37,128.785 2046.82,128.785L2056.87,128.785C2072.55,128.785 2083.5,133.636 2083.5,147.836C2083.5,161.036 2074.24,166.888 2056.87,166.888L2046.82,166.888C2043.37,166.888 2040.07,165.324 2037.63,162.54C2035.19,159.756 2033.83,155.98 2033.83,152.043C2033.83,149.28 2033.83,146.393 2033.83,143.629Z"
                          style="fill:url(#_Linear3);fill-rule:nonzero;stroke:url(#_Linear4);stroke-width:4.8px;"/>
                </g>
                <g transform="matrix(1,0,0,1,-10.9434,0)">
                    <path d="M2213.53,222.585C2214.29,224.585 2216.98,225.785 2218.87,225.785C2221.33,225.785 2223.59,223.385 2223.59,220.785C2223.59,220.191 2223.41,219.206 2221.58,214.539C2221.56,214.488 2221.54,214.436 2221.52,214.384C2214.15,194.585 2195.64,150.785 2182.04,119.785C2182.04,119.784 2182.04,119.784 2182.04,119.783C2181.29,117.984 2179.4,116.985 2177.51,116.985L2176.76,116.985C2174.87,116.985 2172.98,118.185 2172.22,119.985C2159.2,150.566 2142.97,190.135 2134.47,214.339C2134.44,214.407 2134.42,214.474 2134.39,214.542C2132.74,219.003 2132.56,219.794 2132.56,220.585C2132.56,223.585 2134.83,225.785 2137.09,225.785C2138.98,225.785 2142.05,224.585 2142.81,222.385C2144.51,217.411 2147.04,211.674 2149.62,205.437C2151.74,200.167 2156.35,196.789 2161.42,196.789C2170.6,196.785 2185.23,196.785 2194.29,196.785C2199.21,196.785 2203.71,199.967 2205.91,205.002C2208.82,211.483 2211.66,217.485 2213.53,222.585ZM2171.27,148.049C2172.29,145.357 2174.6,143.606 2177.17,143.58C2179.73,143.554 2182.07,145.259 2183.14,147.931C2186.83,157.225 2190.35,166.042 2194.04,175.087C2194.98,177.385 2194.82,180.073 2193.63,182.212C2192.44,184.352 2190.37,185.647 2188.15,185.647C2181.7,185.648 2173.4,185.648 2166.99,185.648C2164.8,185.648 2162.76,184.385 2161.56,182.289C2160.36,180.194 2160.16,177.548 2161.04,175.254C2164.47,166.248 2167.64,157.63 2171.27,148.049Z"
                          style="fill:url(#_Linear5);fill-rule:nonzero;stroke:url(#_Linear6);stroke-width:4.8px;"/>
                </g>
                <g transform="matrix(1,0,0,0.981685,-18.9023,2.17188)">
                    <path d="M2285.1,223.985C2285.1,223.99 2285.1,223.995 2285.1,224C2286.24,226.391 2287.93,227.785 2289.82,227.785C2291.52,227.785 2293.22,226.785 2293.97,225.186C2293.97,225.185 2293.97,225.185 2293.97,225.185C2302.28,208.195 2325.3,154.648 2333.24,132.025C2333.26,131.967 2333.28,131.91 2333.3,131.852C2334.97,126.946 2335.52,124.778 2335.52,123.985C2335.52,121.185 2332.45,118.785 2330,118.785C2327.93,118.785 2326.04,119.977 2325.28,122.163C2325.28,122.17 2325.28,122.177 2325.27,122.184C2318.33,139.884 2307.74,165.539 2297.57,189.851C2296.12,193.314 2293.1,195.513 2289.8,195.52C2286.49,195.526 2283.47,193.338 2282.01,189.881C2271.78,165.613 2260.84,139.111 2254.18,121.999C2254.16,121.954 2254.15,121.908 2254.13,121.862C2253.53,119.739 2251.49,118.585 2249.64,118.585C2246.43,118.585 2243.92,121.185 2243.92,123.585C2243.92,124.785 2244.87,127.785 2245.81,130.585C2252.8,151.385 2277.54,208.785 2285.1,223.985Z"
                          style="fill:url(#_Linear7);fill-rule:nonzero;stroke:url(#_Linear8);stroke-width:4.84px;"/>
                </g>
                <g transform="matrix(1,0,0,1,-23.8765,0)">
                    <path d="M2372.92,123.785L2372.92,220.785C2372.92,223.385 2375.19,225.785 2377.64,225.785L2430.34,225.785C2432.98,225.785 2435.06,223.385 2435.06,220.785C2435.06,217.985 2432.98,214.648 2430.34,214.648L2395.35,214.648C2388.18,214.648 2382.36,208.002 2382.36,199.803L2382.36,189.566C2382.36,181.368 2388.18,174.722 2395.35,174.722L2421.84,174.722C2423.28,174.722 2424.56,173.666 2425.42,172.285C2426.13,171.137 2426.56,169.764 2426.56,168.585C2426.56,165.785 2424.48,163.585 2421.84,163.585L2395.35,163.585C2391.91,163.585 2388.6,162.021 2386.17,159.237C2383.73,156.453 2382.36,152.677 2382.36,148.74C2382.36,147.421 2382.36,146.085 2382.36,144.766C2382.36,140.829 2383.73,137.054 2386.17,134.27C2388.6,131.486 2391.91,129.922 2395.35,129.922L2429.96,129.922C2432.6,129.922 2434.68,126.385 2434.68,123.785C2434.68,120.985 2432.6,118.785 2429.96,118.785L2377.08,118.785C2374.81,118.785 2372.92,121.185 2372.92,123.785Z"
                          style="fill:url(#_Linear9);fill-rule:nonzero;stroke:url(#_Linear10);stroke-width:4.8px;"/>
                </g>
                <g transform="matrix(1.05144,0,0,1,-156.127,1.42109e-14)">
                    <path d="M2479.06,225.785L2530.25,225.785C2532.89,225.785 2534.97,223.385 2534.97,220.785C2534.97,217.985 2532.89,214.648 2530.25,214.648L2496.14,214.648C2489.32,214.648 2483.78,208.002 2483.78,199.803L2483.78,123.785C2483.78,120.985 2481.71,118.785 2479.06,118.785C2476.61,118.785 2474.34,120.985 2474.34,123.785L2474.34,220.785C2474.34,223.385 2476.61,225.785 2479.06,225.785Z"
                          style="fill:url(#_Linear11);fill-rule:nonzero;stroke:url(#_Linear12);stroke-width:4.66px;"/>
                </g>
                <g transform="matrix(1,0,0,1,-4.97428,0)">
                    <path d="M2698.79,123.785L2698.79,220.785C2698.79,223.385 2701.06,225.785 2703.51,225.785C2706.16,225.785 2708.24,223.585 2708.24,220.785L2708.24,197.57C2708.24,193.633 2709.6,189.857 2712.04,187.073C2714.47,184.289 2717.78,182.725 2721.22,182.725L2731.6,182.725C2756.35,182.725 2768.62,169.436 2768.62,150.036C2768.62,129.436 2753.7,118.785 2731.6,118.785L2703.51,118.785C2700.87,118.785 2698.79,120.985 2698.79,123.785ZM2708.24,144.333C2708.24,140.276 2709.69,136.397 2712.25,133.596C2714.82,130.795 2718.28,129.316 2721.82,129.504C2726.24,129.738 2730.28,129.952 2731.34,130.008C2731.52,130.017 2731.71,130.022 2731.89,130.023C2747.78,130.078 2758.1,134.729 2758.1,150.036C2758.1,164.636 2749.55,171.488 2731.6,171.488L2721.22,171.488C2714.05,171.488 2708.24,164.842 2708.24,156.643L2708.24,144.333Z"
                          style="fill:url(#_Linear13);fill-rule:nonzero;stroke:url(#_Linear14);stroke-width:4.8px;"/>
                </g>
                <g transform="matrix(1,0,0,1,-10.9434,0)">
                    <path d="M2804.56,123.785L2804.56,220.785C2804.56,223.385 2806.82,225.785 2809.28,225.785L2861.97,225.785C2864.62,225.785 2866.69,223.385 2866.69,220.785C2866.69,217.985 2864.62,214.648 2861.97,214.648L2826.99,214.648C2819.82,214.648 2814,208.002 2814,199.803C2814,196.459 2814,192.91 2814,189.566C2814,181.368 2819.82,174.722 2826.99,174.722L2853.47,174.722C2856.12,174.722 2858.2,171.185 2858.2,168.585C2858.2,165.785 2856.12,163.585 2853.47,163.585L2826.99,163.585C2823.54,163.585 2820.24,162.021 2817.8,159.237C2815.37,156.453 2814,152.677 2814,148.74C2814,147.421 2814,146.085 2814,144.766C2814,140.829 2815.37,137.054 2817.8,134.27C2820.24,131.486 2823.54,129.922 2826.99,129.922L2861.6,129.922C2864.24,129.922 2866.32,126.385 2866.32,123.785C2866.32,120.985 2864.24,118.785 2861.6,118.785L2808.71,118.785C2806.45,118.785 2804.56,121.185 2804.56,123.785Z"
                          style="fill:url(#_Linear15);fill-rule:nonzero;stroke:url(#_Linear16);stroke-width:4.8px;"/>
                </g>
                <g transform="matrix(0.0914511,0,0,0.1737,2478.32,-55.1567)">
                    <path d="M754.388,1066.64C754.388,1066.64 941.645,1171.15 1092.62,1255.42C1199.15,1314.88 1363.08,1316.37 1472.55,1258.87C1634.06,1174.04 1838.54,1066.64 1838.54,1066.64"
                          style="fill:none;stroke:url(#_Linear17);stroke-width:122.25px;stroke-linecap:round;stroke-miterlimit:1.5;"/>
                </g>
                <g transform="matrix(0.855498,0,0,1.07411,409.202,-243.937)">
                    <path d="M2621.8,360.757C2621.8,355.87 2619.67,351.183 2615.88,347.727C2612.08,344.271 2606.93,342.33 2601.56,342.33C2577.35,342.33 2537.05,342.33 2512.84,342.33C2507.47,342.33 2502.32,344.271 2498.53,347.727C2494.73,351.183 2492.6,355.87 2492.6,360.757C2492.6,376.404 2492.6,398.747 2492.6,414.394C2492.6,419.281 2494.73,423.968 2498.53,427.424C2502.32,430.88 2507.47,432.821 2512.84,432.821C2537.05,432.821 2577.35,432.821 2601.56,432.821C2606.93,432.821 2612.08,430.88 2615.88,427.424C2619.67,423.968 2621.8,419.281 2621.8,414.394C2621.8,398.747 2621.8,376.404 2621.8,360.757Z"
                          style="fill:none;stroke:url(#_Linear18);stroke-width:17.06px;stroke-linecap:round;stroke-miterlimit:1.5;"/>
                </g>
            </g>
        </g>
    </g>
    <defs>
        <linearGradient id="_Linear1" x1="0" y1="0" x2="1" y2="0" gradientUnits="userSpaceOnUse"
                        gradientTransform="matrix(727.678,194.216,-169.922,831.713,2001.05,78.6065)"><stop offset="0" style="stop-color:rgb(99,65,250);stop-opacity:1"/>
            <stop offset="1" style="stop-color:rgb(179,65,250);stop-opacity:1"/></linearGradient>
        <linearGradient id="_Linear2" x1="0" y1="0" x2="1" y2="0" gradientUnits="userSpaceOnUse"
                        gradientTransform="matrix(680.057,211.534,-185.075,777.283,2048.68,76.1324)"><stop offset="0" style="stop-color:rgb(98,65,250);stop-opacity:1"/>
            <stop offset="1" style="stop-color:rgb(179,65,250);stop-opacity:1"/></linearGradient>
        <linearGradient id="_Linear3" x1="0" y1="0" x2="1" y2="0" gradientUnits="userSpaceOnUse"
                        gradientTransform="matrix(727.678,194.216,-169.922,831.713,2006.03,78.6065)"><stop offset="0" style="stop-color:rgb(99,65,250);stop-opacity:1"/>
            <stop offset="1" style="stop-color:rgb(179,65,250);stop-opacity:1"/></linearGradient>
        <linearGradient id="_Linear4" x1="0" y1="0" x2="1" y2="0" gradientUnits="userSpaceOnUse"
                        gradientTransform="matrix(680.057,211.534,-185.075,777.283,2053.65,76.1324)"><stop offset="0" style="stop-color:rgb(98,65,250);stop-opacity:1"/>
            <stop offset="1" style="stop-color:rgb(179,65,250);stop-opacity:1"/></linearGradient>
        <linearGradient id="_Linear5" x1="0" y1="0" x2="1" y2="0" gradientUnits="userSpaceOnUse"
                        gradientTransform="matrix(727.678,194.216,-169.922,831.713,2012,78.6065)"><stop offset="0" style="stop-color:rgb(99,65,250);stop-opacity:1"/>
            <stop offset="1" style="stop-color:rgb(179,65,250);stop-opacity:1"/></linearGradient>
        <linearGradient id="_Linear6" x1="0" y1="0" x2="1" y2="0" gradientUnits="userSpaceOnUse"
                        gradientTransform="matrix(680.057,211.534,-185.075,777.283,2059.62,76.1324)"><stop offset="0" style="stop-color:rgb(98,65,250);stop-opacity:1"/>
            <stop offset="1" style="stop-color:rgb(179,65,250);stop-opacity:1"/></linearGradient>
        <linearGradient id="_Linear7" x1="0" y1="0" x2="1" y2="0" gradientUnits="userSpaceOnUse"
                        gradientTransform="matrix(727.678,197.839,-169.922,847.23,2019.96,77.8607)"><stop offset="0" style="stop-color:rgb(99,65,250);stop-opacity:1"/>
            <stop offset="1" style="stop-color:rgb(179,65,250);stop-opacity:1"/></linearGradient>
        <linearGradient id="_Linear8" x1="0" y1="0" x2="1" y2="0" gradientUnits="userSpaceOnUse"
                        gradientTransform="matrix(680.057,215.481,-185.075,791.784,2067.58,75.3404)"><stop offset="0" style="stop-color:rgb(98,65,250);stop-opacity:1"/>
            <stop offset="1" style="stop-color:rgb(179,65,250);stop-opacity:1"/></linearGradient>
        <linearGradient id="_Linear9" x1="0" y1="0" x2="1" y2="0" gradientUnits="userSpaceOnUse"
                        gradientTransform="matrix(727.678,194.216,-169.922,831.713,2024.93,78.6065)"><stop offset="0" style="stop-color:rgb(99,65,250);stop-opacity:1"/>
            <stop offset="1" style="stop-color:rgb(179,65,250);stop-opacity:1"/></linearGradient>
        <linearGradient id="_Linear10" x1="0" y1="0" x2="1" y2="0" gradientUnits="userSpaceOnUse"
                        gradientTransform="matrix(680.057,211.534,-185.075,777.283,2072.55,76.1324)"><stop offset="0" style="stop-color:rgb(98,65,250);stop-opacity:1"/>
            <stop offset="1" style="stop-color:rgb(179,65,250);stop-opacity:1"/></linearGradient>
        <linearGradient id="_Linear11" x1="0" y1="0" x2="1" y2="0" gradientUnits="userSpaceOnUse"
                        gradientTransform="matrix(692.079,194.216,-161.609,831.713,2051.65,78.6065)"><stop offset="0" style="stop-color:rgb(99,65,250);stop-opacity:1"/>
            <stop offset="1" style="stop-color:rgb(179,65,250);stop-opacity:1"/></linearGradient>
        <linearGradient id="_Linear12" x1="0" y1="0" x2="1" y2="0" gradientUnits="userSpaceOnUse"
                        gradientTransform="matrix(646.787,211.534,-176.02,777.283,2096.94,76.1324)"><stop offset="0" style="stop-color:rgb(98,65,250);stop-opacity:1"/>
            <stop offset="1" style="stop-color:rgb(179,65,250);stop-opacity:1"/></linearGradient>
        <linearGradient id="_Linear13" x1="0" y1="0" x2="1" y2="0" gradientUnits="userSpaceOnUse"
                        gradientTransform="matrix(727.678,194.216,-169.922,831.713,2006.03,78.6065)"><stop offset="0" style="stop-color:rgb(99,65,250);stop-opacity:1"/>
            <stop offset="1" style="stop-color:rgb(179,65,250);stop-opacity:1"/></linearGradient>
        <linearGradient id="_Linear14" x1="0" y1="0" x2="1" y2="0" gradientUnits="userSpaceOnUse"
                        gradientTransform="matrix(680.057,211.534,-185.075,777.283,2053.65,76.1324)"><stop offset="0" style="stop-color:rgb(98,65,250);stop-opacity:1"/>
            <stop offset="1" style="stop-color:rgb(179,65,250);stop-opacity:1"/></linearGradient>
        <linearGradient id="_Linear15" x1="0" y1="0" x2="1" y2="0" gradientUnits="userSpaceOnUse"
                        gradientTransform="matrix(727.678,194.216,-169.922,831.713,2012,78.6065)"><stop offset="0" style="stop-color:rgb(99,65,250);stop-opacity:1"/>
            <stop offset="1" style="stop-color:rgb(179,65,250);stop-opacity:1"/></linearGradient>
        <linearGradient id="_Linear16" x1="0" y1="0" x2="1" y2="0" gradientUnits="userSpaceOnUse"
                        gradientTransform="matrix(680.057,211.534,-185.075,777.283,2059.62,76.1324)"><stop offset="0" style="stop-color:rgb(98,65,250);stop-opacity:1"/>
            <stop offset="1" style="stop-color:rgb(179,65,250);stop-opacity:1"/></linearGradient>
        <linearGradient id="_Linear17" x1="0" y1="0" x2="1" y2="0" gradientUnits="userSpaceOnUse"
                        gradientTransform="matrix(1084.16,250.31,-91.4271,143.395,754.388,1066.64)"><stop offset="0" style="stop-color:rgb(105,56,211);stop-opacity:1"/>
            <stop offset="1" style="stop-color:rgb(144,67,244);stop-opacity:1"/></linearGradient>
        <linearGradient id="_Linear18" x1="0" y1="0" x2="1" y2="0" gradientUnits="userSpaceOnUse"
                        gradientTransform="matrix(165.731,128.99,-141.693,150.872,2483.17,325.627)"><stop offset="0" style="stop-color:rgb(108,65,250);stop-opacity:1"/>
            <stop offset="1" style="stop-color:rgb(168,67,250);stop-opacity:1"/></linearGradient>
    </defs>
</svg>
