<?xml version="1.0" encoding="UTF-8" standalone="no"?>
<!DOCTYPE svg PUBLIC "-//W3C//DTD SVG 1.1//EN" "http://www.w3.org/Graphics/SVG/1.1/DTD/svg11.dtd">
<svg width="100%" height="100%" viewBox="0 0 479 234" version="1.1" xmlns="http://www.w3.org/2000/svg"
     xml:space="preserve"
     style="fill-rule:evenodd;clip-rule:evenodd;stroke-linejoin:round;stroke-miterlimit:2;">
    <g transform="matrix(1,0,0,1,-6497.06,-596.857)">
        <g id="travelope_logo_tc" transform="matrix(0.318908,0,0,0.569343,5925.25,596.857)">
            <rect x="1793" y="0" width="1502" height="411" style="fill:none;"/>
            <g transform="matrix(3.38822,0,0,1.89786,-7934.23,-480.354)">
                <g transform="matrix(1.0706,0,0,1.06049,-223.862,-24.8056)">
                    <path d="M3030.85,360.821C3030.66,360.061 3030.12,359.433 3029.41,359.117C3028.7,358.801 3027.88,358.831 3027.2,359.199C3027.19,359.197 3027.19,359.197 3027.19,359.197C3025.46,360.121 3024.59,362.125 3025.08,364.037C3029.53,381.017 3036.74,395.194 3046.74,406.632C3047.39,407.359 3048.31,407.774 3049.28,407.774C3050.25,407.773 3051.17,407.358 3051.82,406.63C3051.83,406.636 3051.83,406.635 3051.83,406.635C3053.22,405.076 3053.21,402.709 3051.81,401.16C3047.15,395.918 3043.12,389.968 3039.71,383.39C3038.46,380.939 3039.31,377.928 3041.66,376.512C3044.93,374.521 3047.93,372.331 3050.64,369.945C3052.13,368.606 3052.26,366.304 3050.93,364.804C3050.94,364.797 3050.94,364.796 3050.94,364.796C3050.34,364.122 3049.5,363.723 3048.6,363.692C3047.71,363.66 3046.84,363.999 3046.2,364.629C3044.44,366.339 3042.53,367.923 3040.46,369.371C3039.13,370.295 3037.45,370.538 3035.91,370.026C3034.38,369.515 3033.18,368.308 3032.65,366.766C3031.98,364.844 3031.39,362.861 3030.85,360.821ZM3009.82,340.911C3011.73,338.138 3014.86,336.485 3018.21,336.485C3026.13,336.456 3040.48,336.456 3047.02,336.456C3048.91,336.456 3050.43,334.911 3050.43,333.007C3050.43,333.006 3050.43,333.005 3050.43,333.004C3050.43,331.1 3048.91,329.556 3047.02,329.556C3041.3,329.556 3029.71,329.556 3022.5,329.556C3021.13,329.556 3019.84,328.87 3019.07,327.724C3018.29,326.578 3018.13,325.121 3018.63,323.83C3018.65,323.779 3018.67,323.729 3018.69,323.678C3019.44,321.743 3018.5,319.561 3016.58,318.802C3016.58,318.801 3016.58,318.8 3016.58,318.8C3015.7,318.452 3014.72,318.476 3013.85,318.868C3012.99,319.26 3012.32,319.986 3011.99,320.882C3008.66,329.99 3004.16,337.544 2998.41,343.646C2997.77,344.303 2997.43,345.198 2997.47,346.117C2997.52,347.035 2997.93,347.895 2998.63,348.489C2998.62,348.5 2998.62,348.5 2998.62,348.5C3000.21,349.858 3002.57,349.737 3004.01,348.222C3006.03,346.043 3007.96,343.608 3009.82,340.911ZM3005.83,403.738C3006.53,406.591 3009.37,408.344 3012.2,407.664C3018.37,406.176 3023.91,404.661 3028.82,403.177C3030.7,402.602 3031.85,400.696 3031.5,398.745C3031.5,398.744 3031.5,398.743 3031.5,398.742C3031.35,397.89 3030.84,397.145 3030.11,396.697C3029.37,396.248 3028.48,396.14 3027.66,396.398C3025.51,397.073 3023.35,397.706 3021.18,398.31C3019.62,398.746 3017.94,398.421 3016.66,397.431C3015.37,396.441 3014.61,394.9 3014.61,393.265C3014.61,385.74 3014.61,373.579 3014.61,365.311C3014.61,360.292 3018.18,355.997 3023.07,355.126C3030.57,353.797 3037.58,352.033 3044.09,349.851C3044.91,349.569 3045.55,348.921 3045.84,348.095C3046.13,347.268 3046.02,346.354 3045.55,345.616C3045.55,345.615 3045.55,345.614 3045.55,345.614C3044.42,343.831 3042.23,343.059 3040.25,343.743C3032.49,346.378 3024.45,348.339 3016.05,349.689C3011.07,350.473 3007.4,354.803 3007.4,359.89C3007.38,373.766 3007.38,398.738 3007.38,398.756C3007.38,398.756 3007.38,398.756 3007.38,398.756C3007.38,399.971 3006.97,400.956 3006.24,401.623C3005.8,401.987 3005.61,402.568 3005.75,403.121C3005.73,403.319 3005.78,403.522 3005.83,403.738ZM2965.61,332.356C2963.72,332.356 2962.19,333.9 2962.19,335.804C2962.19,336.125 2962.19,336.445 2962.19,336.754C2962.19,337.418 2962.45,338.054 2962.92,338.523C2963.38,338.992 2964.01,339.256 2964.67,339.256C2964.67,339.256 2964.67,339.256 2964.67,339.256C2966.31,339.256 2967.88,339.912 2969.03,341.081C2970.19,342.249 2970.84,343.834 2970.84,345.486C2970.84,350.059 2970.84,355.54 2970.84,355.933C2970.84,355.949 2970.84,355.965 2970.84,355.982C2970.75,376.206 2967.75,391.456 2961.92,401.731C2960.82,403.525 2961.19,405.865 2962.8,407.217C2962.78,407.237 2962.78,407.237 2962.78,407.237C2963.51,407.858 2964.48,408.127 2965.43,407.975C2966.38,407.823 2967.21,407.266 2967.72,406.447C2973.27,396.815 2976.5,383.235 2977.43,365.694C2977.61,362.254 2980.43,359.559 2983.84,359.56C2983.84,359.556 2983.84,359.556 2983.84,359.556C2985.66,359.556 2987.41,360.292 2988.68,361.599C2989.96,362.907 2990.66,364.677 2990.64,366.513C2990.47,383.554 2989.99,393.914 2989.26,397.455C2989.26,397.46 2989.26,397.465 2989.26,397.469C2988.44,401.06 2985.59,402.856 2980.82,402.856C2980.63,402.856 2980.43,402.851 2980.23,402.842C2979.36,402.814 2978.52,403.206 2977.98,403.897C2977.44,404.589 2977.25,405.499 2977.48,406.35C2977.48,406.352 2977.48,406.352 2977.48,406.353C2977.91,407.993 2979.35,409.158 2981.03,409.228C2981.38,409.245 2981.68,409.256 2981.94,409.256C2990.28,409.256 2994.96,406.159 2995.98,400.166C2995.98,400.162 2995.98,400.159 2995.98,400.156C2996.94,395.082 2997.53,382.686 2997.68,363.033C2997.71,360.346 2996.68,357.758 2994.8,355.847C2992.93,353.935 2990.38,352.859 2987.72,352.859C2986.63,352.856 2985.54,352.856 2984.5,352.856C2980.78,352.856 2977.76,349.811 2977.76,346.056C2977.76,346.056 2977.76,346.055 2977.76,346.055C2977.76,344.252 2978.47,342.522 2979.74,341.247C2981,339.972 2982.71,339.256 2984.5,339.256C2988.14,339.256 2992.47,339.256 2995.41,339.256C2997.3,339.256 2998.83,337.711 2998.83,335.807C2998.83,335.806 2998.83,335.805 2998.83,335.804C2998.83,333.9 2997.3,332.356 2995.41,332.356C2991.93,332.356 2986.66,332.356 2983.97,332.356C2983.82,332.356 2983.69,332.248 2983.67,332.101C2983.64,331.954 2983.72,331.809 2983.86,331.758C2983.86,331.758 2983.86,331.758 2983.86,331.758C2984.77,331.423 2985.24,330.411 2984.92,329.491C2983.94,326.752 2982.78,323.879 2981.43,320.82C2980.57,318.878 2978.44,317.858 2976.41,318.415C2976.41,318.414 2976.41,318.415 2976.41,318.415C2975.58,318.643 2974.89,319.233 2974.53,320.025C2974.18,320.816 2974.19,321.726 2974.57,322.507C2975.02,323.437 2975.45,324.374 2975.86,325.319C2976.54,326.867 2976.39,328.656 2975.48,330.075C2974.56,331.493 2973,332.348 2971.32,332.348C2969.33,332.356 2967.27,332.356 2965.61,332.356Z"
                          style="fill:url(#_Linear1);fill-rule:nonzero;stroke:url(#_Linear2);stroke-width:3.62px;"/>
                </g>
                <g transform="matrix(1.0706,0,0,1.06049,-156.302,-24.8056)">
                    <path d="M3085.91,358.149C3086.35,357.552 3087.13,357.311 3087.83,357.55C3088.53,357.788 3089.01,358.454 3089.01,359.203C3089.01,370.545 3089.01,396.764 3089.01,406.409C3089.01,408.423 3090.63,410.056 3092.62,410.056L3092.62,410.056C3094.62,410.056 3096.24,408.423 3096.24,406.409L3096.24,344.556C3096.24,342.928 3096.62,341.323 3097.35,339.872C3099.88,334.812 3102.08,329.528 3103.99,323.982C3104.69,321.939 3103.73,319.694 3101.78,318.806C3101.78,318.804 3101.78,318.804 3101.78,318.804C3100.92,318.413 3099.94,318.411 3099.08,318.797C3098.21,319.183 3097.56,319.921 3097.27,320.826C3092.86,334.385 3086.38,346.608 3077.75,357.428C3077.03,358.325 3076.8,359.525 3077.14,360.629C3077.13,360.63 3077.13,360.631 3077.13,360.631C3077.5,361.843 3078.5,362.753 3079.73,363.002C3080.96,363.25 3082.23,362.797 3083.03,361.821C3084.01,360.612 3084.97,359.387 3085.91,358.149ZM3108.16,331.356C3107.26,331.356 3106.41,331.714 3105.77,332.351C3105.14,332.989 3104.79,333.854 3104.79,334.755C3104.79,334.756 3104.79,334.756 3104.79,334.756C3104.79,335.657 3105.14,336.522 3105.77,337.16C3106.41,337.797 3107.26,338.156 3108.16,338.156C3119.51,338.156 3156.32,338.156 3167.68,338.156C3168.57,338.156 3169.43,337.797 3170.06,337.16C3170.69,336.522 3171.05,335.657 3171.05,334.756C3171.05,334.756 3171.05,334.756 3171.05,334.755C3171.05,333.854 3170.69,332.989 3170.06,332.351C3169.43,331.714 3168.57,331.356 3167.68,331.356C3161.02,331.356 3146.37,331.356 3141,331.356C3140.83,331.356 3140.69,331.232 3140.66,331.062C3140.63,330.892 3140.72,330.726 3140.89,330.668C3140.89,330.668 3140.89,330.667 3140.89,330.667C3141.98,330.271 3142.55,329.054 3142.16,327.947C3141.4,325.826 3140.5,323.605 3139.46,321.269C3138.58,319.293 3136.4,318.254 3134.33,318.815C3134.33,318.812 3134.33,318.812 3134.33,318.812C3133.49,319.04 3132.79,319.638 3132.43,320.44C3132.08,321.243 3132.09,322.165 3132.48,322.953C3133.05,324.109 3133.59,325.271 3134.11,326.444C3134.59,327.523 3134.49,328.773 3133.86,329.764C3133.22,330.755 3132.13,331.353 3130.96,331.353C3124.5,331.356 3113.63,331.356 3108.16,331.356ZM3119.1,346.383C3117.32,346.383 3115.88,347.838 3115.88,349.633C3115.88,349.633 3115.88,349.633 3115.88,349.633C3115.88,351.428 3117.32,352.883 3119.1,352.883C3127.34,352.883 3149.11,352.883 3157.35,352.883C3159.12,352.883 3160.57,351.428 3160.57,349.633C3160.57,349.633 3160.57,349.633 3160.57,349.633C3160.57,347.838 3159.12,346.383 3157.35,346.383C3149.11,346.383 3127.34,346.383 3119.1,346.383ZM3119.15,360.737C3117.34,360.737 3115.88,362.214 3115.88,364.036C3115.88,364.037 3115.88,364.038 3115.88,364.039C3115.88,365.861 3117.34,367.337 3119.15,367.337C3127.41,367.337 3149.04,367.337 3157.3,367.337C3159.1,367.337 3160.57,365.861 3160.57,364.039C3160.57,364.038 3160.57,364.037 3160.57,364.036C3160.57,362.214 3159.1,360.737 3157.3,360.737C3149.04,360.737 3127.41,360.737 3119.15,360.737Z"
                          style="fill:url(#_Linear3);fill-rule:nonzero;stroke:url(#_Linear4);stroke-width:3.62px;"/>
                </g>
                <g transform="matrix(0.0435465,0,0,0.0481743,3147.52,330.473)">
                    <path d="M796.228,1072.87C796.228,1072.87 931.964,1148.04 1059.64,1218.75C1195.04,1293.74 1365.37,1294.35 1501.43,1220.34C1632.25,1149.17 1772.51,1072.87 1772.51,1072.87"
                          style="fill:none;stroke:url(#_Linear5);stroke-width:209.94px;stroke-linecap:round;stroke-miterlimit:1.5;"/>
                </g>
                <g transform="matrix(0.0445545,0,0,0.043926,3146.78,335.982)">
                    <path d="M1853.66,1308.59C1853.66,1308.59 1854.12,1256.91 1854.64,1189.66C1855.09,1122.31 1829.03,1057.56 1782.23,1009.77C1735.44,961.988 1671.78,935.115 1605.38,935.115C1412.13,935.114 1146.17,935.114 953.259,935.114C815.597,935.114 704,1048.31 704,1187.94C704,1247.42 704,1310.81 704,1370.29C704,1509.92 815.597,1623.11 953.259,1623.11C1145.99,1623.11 1411.65,1623.11 1604.85,1623.11C1671.29,1623.11 1734.97,1596.22 1781.77,1548.39C1828.57,1500.56 1854.61,1435.76 1854.11,1368.38C1853.84,1333.08 1853.66,1308.59 1853.66,1308.59Z"
                          style="fill:none;stroke:url(#_Linear6);stroke-width:217.9px;stroke-linecap:round;stroke-miterlimit:1.5;"/>
                </g>
            </g>
            <g transform="matrix(4.09826,0,0,2.29557,-10483.5,-716.606)">
                <circle cx="3178.78" cy="403" r="9" style="fill:url(#_Linear7);"/>
            </g>
        </g>
    </g>
    <defs>
        <linearGradient id="_Linear1" x1="0" y1="0" x2="1" y2="0" gradientUnits="userSpaceOnUse"
                        gradientTransform="matrix(272.865,91.7918,-90.9257,275.464,2961.29,318.264)"><stop offset="0" style="stop-color:rgb(134,67,250);stop-opacity:1"/>
            <stop offset="1" style="stop-color:rgb(173,66,250);stop-opacity:1"/></linearGradient>
        <linearGradient id="_Linear2" x1="0" y1="0" x2="1" y2="0" gradientUnits="userSpaceOnUse"
                        gradientTransform="matrix(272.865,91.7918,-90.9257,275.464,2961.29,318.264)"><stop offset="0" style="stop-color:rgb(134,67,250);stop-opacity:1"/>
            <stop offset="1" style="stop-color:rgb(174,67,250);stop-opacity:1"/></linearGradient>
        <linearGradient id="_Linear3" x1="0" y1="0" x2="1" y2="0" gradientUnits="userSpaceOnUse"
                        gradientTransform="matrix(272.865,91.7918,-90.9257,275.464,2898.18,318.264)"><stop offset="0" style="stop-color:rgb(134,67,250);stop-opacity:1"/>
            <stop offset="1" style="stop-color:rgb(173,66,250);stop-opacity:1"/></linearGradient>
        <linearGradient id="_Linear4" x1="0" y1="0" x2="1" y2="0" gradientUnits="userSpaceOnUse"
                        gradientTransform="matrix(272.865,91.7918,-90.9257,275.464,2898.18,318.264)"><stop offset="0" style="stop-color:rgb(134,67,250);stop-opacity:1"/>
            <stop offset="1" style="stop-color:rgb(174,67,250);stop-opacity:1"/></linearGradient>
        <linearGradient id="_Linear5" x1="0" y1="0" x2="1" y2="0" gradientUnits="userSpaceOnUse"
                        gradientTransform="matrix(1096.28,0,0,990.973,743.759,1072.87)"><stop offset="0" style="stop-color:rgb(115,41,243);stop-opacity:1"/>
            <stop offset="1" style="stop-color:rgb(161,66,250);stop-opacity:1"/></linearGradient>
        <linearGradient id="_Linear6" x1="0" y1="0" x2="1" y2="0" gradientUnits="userSpaceOnUse"
                        gradientTransform="matrix(1150.64,760.923,-750.189,1167.11,704,862.191)"><stop offset="0" style="stop-color:rgb(129,67,250);stop-opacity:1"/>
            <stop offset="1" style="stop-color:rgb(174,67,250);stop-opacity:1"/></linearGradient>
        <linearGradient id="_Linear7" x1="0" y1="0" x2="1" y2="0" gradientUnits="userSpaceOnUse"
                        gradientTransform="matrix(18,18,-18,18,3169.78,394)"><stop offset="0" style="stop-color:rgb(114,43,247);stop-opacity:1"/>
            <stop offset="1" style="stop-color:rgb(179,103,255);stop-opacity:1"/></linearGradient>
    </defs>
</svg>
